<svg width="429" height="120" viewBox="0 0 429 120" fill="none" xmlns="http://www.w3.org/2000/svg">
<rect x="0.5" y="0.5" width="428" height="119" rx="19.5" fill="white" stroke="black"/>
<g clip-path="url(#clip0_61_4)">
<path d="M101.186 38.1812C100.78 38.4872 93.6097 42.4108 93.6097 51.1352C93.6097 61.2264 102.734 64.7964 103.007 64.8848C102.965 65.1024 101.557 69.774 98.1963 74.534C95.1993 78.7228 92.0692 82.9048 87.3075 82.9048C82.5458 82.9048 81.3204 80.2188 75.8235 80.2188C70.4666 80.2188 68.5619 82.9932 64.2064 82.9932C59.8509 82.9932 56.8118 79.1172 53.3176 74.3572C49.2701 68.7676 46 60.084 46 51.8424C46 38.6232 54.8511 31.6124 63.5622 31.6124C68.1908 31.6124 72.0491 34.5636 74.9552 34.5636C77.7211 34.5636 82.0346 31.4356 87.3005 31.4356C89.2962 31.4356 96.4667 31.6124 101.186 38.1812ZM84.8006 25.8392C86.9784 23.33 88.5189 19.8484 88.5189 16.3668C88.5189 15.884 88.4769 15.3944 88.3859 15C84.8426 15.1292 80.6272 17.2916 78.0853 20.1544C76.0896 22.3576 74.2269 25.8392 74.2269 29.3684C74.2269 29.8988 74.3179 30.4292 74.36 30.5992C74.584 30.64 74.9482 30.6876 75.3123 30.6876C78.4914 30.6876 82.4898 28.6204 84.8006 25.8392Z" fill="black"/>
</g>
<path d="M139.091 25H137.636C137.485 24.2121 137.201 23.4508 136.784 22.7159C136.367 21.9735 135.83 21.3068 135.17 20.7159C134.519 20.1174 133.761 19.6439 132.898 19.2955C132.034 18.947 131.08 18.7727 130.034 18.7727C128.504 18.7727 127.095 19.1818 125.807 20C124.527 20.8106 123.5 22.0038 122.727 23.5795C121.962 25.1553 121.58 27.0833 121.58 29.3636C121.58 31.6591 121.962 33.5947 122.727 35.1705C123.5 36.7462 124.527 37.9394 125.807 38.75C127.095 39.553 128.504 39.9545 130.034 39.9545C131.08 39.9545 132.034 39.7841 132.898 39.4432C133.761 39.0947 134.519 38.625 135.17 38.0341C135.83 37.4356 136.367 36.7652 136.784 36.0227C137.201 35.2803 137.485 34.5152 137.636 33.7273H139.091C138.924 34.6667 138.602 35.5871 138.125 36.4886C137.655 37.3902 137.034 38.2083 136.261 38.9432C135.496 39.6705 134.591 40.25 133.545 40.6818C132.508 41.1061 131.337 41.3182 130.034 41.3182C128.095 41.3182 126.386 40.8258 124.909 39.8409C123.432 38.8485 122.273 37.4545 121.432 35.6591C120.598 33.8636 120.182 31.7652 120.182 29.3636C120.182 26.9621 120.598 24.8636 121.432 23.0682C122.273 21.2727 123.432 19.8826 124.909 18.8977C126.386 17.9053 128.095 17.4091 130.034 17.4091C131.337 17.4091 132.508 17.625 133.545 18.0568C134.591 18.4811 135.496 19.0568 136.261 19.7841C137.034 20.5038 137.655 21.3144 138.125 22.2159C138.602 23.1174 138.924 24.0455 139.091 25ZM150.551 41.3636C149.112 41.3636 147.831 40.9773 146.71 40.2045C145.589 39.4242 144.706 38.3523 144.062 36.9886C143.419 35.625 143.097 34.072 143.097 32.3295C143.097 30.5795 143.419 29.0265 144.062 27.6705C144.706 26.3068 145.589 25.2348 146.71 24.4545C147.831 23.6742 149.112 23.2841 150.551 23.2841C151.991 23.2841 153.271 23.6742 154.392 24.4545C155.513 25.2348 156.396 26.3068 157.04 27.6705C157.684 29.0341 158.006 30.5871 158.006 32.3295C158.006 34.072 157.684 35.625 157.04 36.9886C156.396 38.3523 155.513 39.4242 154.392 40.2045C153.271 40.9773 151.991 41.3636 150.551 41.3636ZM150.551 40.0795C151.771 40.0795 152.835 39.7348 153.744 39.0455C154.661 38.3561 155.369 37.4242 155.869 36.25C156.377 35.0758 156.631 33.7689 156.631 32.3295C156.631 30.8902 156.377 29.5871 155.869 28.4205C155.362 27.2462 154.653 26.3144 153.744 25.625C152.835 24.928 151.771 24.5795 150.551 24.5795C149.331 24.5795 148.267 24.928 147.358 25.625C146.449 26.3144 145.741 27.2462 145.233 28.4205C144.725 29.5871 144.472 30.8902 144.472 32.3295C144.472 33.7689 144.722 35.0758 145.222 36.25C145.729 37.4242 146.438 38.3561 147.347 39.0455C148.263 39.7348 149.331 40.0795 150.551 40.0795ZM164.168 29.6818V41H162.781V23.5455H164.134V26.3068H164.27C164.679 25.4053 165.334 24.6818 166.236 24.1364C167.137 23.5909 168.209 23.3182 169.452 23.3182C170.626 23.3182 171.656 23.5682 172.543 24.0682C173.437 24.5682 174.134 25.2803 174.634 26.2045C175.141 27.1212 175.395 28.2159 175.395 29.4886V41H174.009V29.5455C174.009 28.0606 173.565 26.8674 172.679 25.9659C171.8 25.0568 170.637 24.6023 169.19 24.6023C168.221 24.6023 167.357 24.8144 166.599 25.2386C165.842 25.6629 165.247 26.2576 164.815 27.0227C164.384 27.7803 164.168 28.6667 164.168 29.6818ZM192.247 27.3068L190.963 27.6477C190.759 27.0114 190.467 26.4621 190.088 26C189.709 25.5379 189.232 25.1818 188.656 24.9318C188.088 24.6742 187.406 24.5455 186.611 24.5455C185.33 24.5455 184.281 24.8636 183.463 25.5C182.652 26.1364 182.247 26.9659 182.247 27.9886C182.247 28.822 182.524 29.5114 183.077 30.0568C183.63 30.5947 184.474 31.0038 185.611 31.2841L188.293 31.9545C189.671 32.2955 190.709 32.8485 191.406 33.6136C192.103 34.3712 192.452 35.3144 192.452 36.4432C192.452 37.4053 192.19 38.2576 191.668 39C191.145 39.7424 190.421 40.322 189.497 40.7386C188.58 41.1553 187.512 41.3636 186.293 41.3636C184.664 41.3636 183.327 40.9848 182.281 40.2273C181.236 39.4621 180.565 38.3674 180.27 36.9432L181.599 36.6023C181.849 37.7386 182.368 38.6061 183.156 39.2045C183.952 39.7955 184.993 40.0909 186.281 40.0909C187.705 40.0909 188.853 39.7538 189.724 39.0795C190.603 38.4053 191.043 37.5417 191.043 36.4886C191.043 35.6856 190.785 35.0076 190.27 34.4545C189.755 33.9015 188.974 33.4962 187.929 33.2386L185.145 32.5568C183.721 32.2083 182.652 31.6515 181.94 30.8864C181.228 30.1136 180.872 29.1629 180.872 28.0341C180.872 27.0947 181.118 26.2689 181.611 25.5568C182.103 24.8447 182.781 24.2879 183.645 23.8864C184.509 23.4848 185.497 23.2841 186.611 23.2841C188.088 23.2841 189.293 23.6326 190.224 24.3295C191.156 25.0265 191.83 26.0189 192.247 27.3068ZM197.318 41V23.5455H198.693V41H197.318ZM197.341 21.0568L200.386 16.0341H202.034L198.614 21.0568H197.341ZM210.795 47.9091C209.712 47.9091 208.739 47.7652 207.875 47.4773C207.011 47.197 206.277 46.7955 205.67 46.2727C205.072 45.75 204.614 45.1288 204.295 44.4091L205.455 43.7273C205.712 44.2879 206.08 44.7879 206.557 45.2273C207.034 45.6667 207.625 46.0114 208.33 46.2614C209.042 46.5114 209.864 46.6364 210.795 46.6364C212.477 46.6364 213.807 46.2008 214.784 45.3295C215.769 44.4659 216.261 43.1402 216.261 41.3523V37.0114H216.125C215.86 37.7689 215.466 38.4432 214.943 39.0341C214.428 39.6174 213.795 40.0758 213.045 40.4091C212.295 40.7424 211.443 40.9091 210.489 40.9091C209.11 40.9091 207.898 40.553 206.852 39.8409C205.807 39.1288 204.992 38.1288 204.409 36.8409C203.826 35.5455 203.534 34.0227 203.534 32.2727C203.534 30.5227 203.818 28.9735 204.386 27.625C204.962 26.2689 205.773 25.2083 206.818 24.4432C207.864 23.6705 209.091 23.2841 210.5 23.2841C211.508 23.2841 212.379 23.4773 213.114 23.8636C213.856 24.2424 214.477 24.7462 214.977 25.375C215.477 26.0038 215.864 26.6932 216.136 27.4432H216.295V23.5455H217.636V41.4091C217.636 42.8636 217.348 44.072 216.773 45.0341C216.205 45.9962 215.405 46.7159 214.375 47.1932C213.352 47.6705 212.159 47.9091 210.795 47.9091ZM210.614 39.625C211.78 39.625 212.784 39.3295 213.625 38.7386C214.473 38.1402 215.125 37.2917 215.58 36.1932C216.042 35.0871 216.273 33.7765 216.273 32.2614C216.273 30.7917 216.049 29.4773 215.602 28.3182C215.155 27.1591 214.508 26.2462 213.659 25.5795C212.811 24.9129 211.795 24.5795 210.614 24.5795C209.409 24.5795 208.383 24.9205 207.534 25.6023C206.686 26.2765 206.034 27.1932 205.58 28.3523C205.133 29.5114 204.909 30.8144 204.909 32.2614C204.909 33.7159 205.136 34.9962 205.591 36.1023C206.045 37.2008 206.697 38.0644 207.545 38.6932C208.394 39.3144 209.417 39.625 210.614 39.625ZM234.651 34.8068V23.5455H236.037V41H234.651V38.1705H234.537C234.128 39.072 233.465 39.8068 232.548 40.375C231.639 40.9432 230.563 41.2273 229.321 41.2273C228.177 41.2273 227.166 40.9773 226.287 40.4773C225.408 39.9773 224.719 39.2689 224.219 38.3523C223.719 37.428 223.469 36.3295 223.469 35.0568V23.5455H224.855V35C224.855 36.4545 225.295 37.6326 226.173 38.5341C227.06 39.428 228.204 39.875 229.605 39.875C230.514 39.875 231.351 39.6705 232.116 39.2614C232.882 38.8523 233.495 38.2689 233.957 37.5114C234.42 36.7462 234.651 35.8447 234.651 34.8068ZM248.588 41.3636C247.012 41.3636 245.641 40.9735 244.474 40.1932C243.308 39.4129 242.406 38.3447 241.77 36.9886C241.134 35.6326 240.815 34.0871 240.815 32.3523C240.815 30.6098 241.134 29.0568 241.77 27.6932C242.414 26.3295 243.296 25.2538 244.418 24.4659C245.539 23.678 246.819 23.2841 248.259 23.2841C249.236 23.2841 250.16 23.4811 251.031 23.875C251.91 24.2614 252.683 24.822 253.349 25.5568C254.024 26.2917 254.55 27.178 254.929 28.2159C255.315 29.2538 255.509 30.4205 255.509 31.7159V32.5795H241.69V31.3182H254.122C254.122 30.053 253.865 28.9129 253.349 27.8977C252.834 26.8826 252.134 26.0758 251.247 25.4773C250.361 24.8788 249.365 24.5795 248.259 24.5795C247.099 24.5795 246.065 24.9053 245.156 25.5568C244.255 26.2008 243.539 27.072 243.009 28.1705C242.486 29.2689 242.213 30.4962 242.19 31.8523V32.4205C242.19 33.875 242.444 35.1818 242.952 36.3409C243.467 37.4924 244.202 38.4053 245.156 39.0795C246.111 39.7462 247.255 40.0795 248.588 40.0795C249.543 40.0795 250.357 39.9205 251.031 39.6023C251.713 39.2765 252.27 38.8826 252.702 38.4205C253.134 37.9583 253.459 37.5114 253.679 37.0795L254.94 37.5909C254.675 38.1742 254.262 38.7576 253.702 39.3409C253.149 39.9167 252.444 40.3977 251.588 40.7841C250.74 41.1705 249.74 41.3636 248.588 41.3636ZM261.668 17.7273V41H260.281V17.7273H261.668ZM273.895 41.3636C272.455 41.3636 271.175 40.9773 270.054 40.2045C268.933 39.4242 268.05 38.3523 267.406 36.9886C266.762 35.625 266.44 34.072 266.44 32.3295C266.44 30.5795 266.762 29.0265 267.406 27.6705C268.05 26.3068 268.933 25.2348 270.054 24.4545C271.175 23.6742 272.455 23.2841 273.895 23.2841C275.334 23.2841 276.615 23.6742 277.736 24.4545C278.857 25.2348 279.74 26.3068 280.384 27.6705C281.027 29.0341 281.349 30.5871 281.349 32.3295C281.349 34.072 281.027 35.625 280.384 36.9886C279.74 38.3523 278.857 39.4242 277.736 40.2045C276.615 40.9773 275.334 41.3636 273.895 41.3636ZM273.895 40.0795C275.115 40.0795 276.179 39.7348 277.088 39.0455C278.005 38.3561 278.713 37.4242 279.213 36.25C279.721 35.0758 279.974 33.7689 279.974 32.3295C279.974 30.8902 279.721 29.5871 279.213 28.4205C278.705 27.2462 277.997 26.3144 277.088 25.625C276.179 24.928 275.115 24.5795 273.895 24.5795C272.675 24.5795 271.611 24.928 270.702 25.625C269.793 26.3144 269.084 27.2462 268.577 28.4205C268.069 29.5871 267.815 30.8902 267.815 32.3295C267.815 33.7689 268.065 35.0758 268.565 36.25C269.073 37.4242 269.781 38.3561 270.69 39.0455C271.607 39.7348 272.675 40.0795 273.895 40.0795ZM301.932 41.3636C300.356 41.3636 298.985 40.9735 297.818 40.1932C296.652 39.4129 295.75 38.3447 295.114 36.9886C294.477 35.6326 294.159 34.0871 294.159 32.3523C294.159 30.6098 294.477 29.0568 295.114 27.6932C295.758 26.3295 296.64 25.2538 297.761 24.4659C298.883 23.678 300.163 23.2841 301.602 23.2841C302.58 23.2841 303.504 23.4811 304.375 23.875C305.254 24.2614 306.027 24.822 306.693 25.5568C307.367 26.2917 307.894 27.178 308.273 28.2159C308.659 29.2538 308.852 30.4205 308.852 31.7159V32.5795H295.034V31.3182H307.466C307.466 30.053 307.208 28.9129 306.693 27.8977C306.178 26.8826 305.477 26.0758 304.591 25.4773C303.705 24.8788 302.708 24.5795 301.602 24.5795C300.443 24.5795 299.409 24.9053 298.5 25.5568C297.598 26.2008 296.883 27.072 296.352 28.1705C295.83 29.2689 295.557 30.4962 295.534 31.8523V32.4205C295.534 33.875 295.788 35.1818 296.295 36.3409C296.811 37.4924 297.545 38.4053 298.5 39.0795C299.455 39.7462 300.598 40.0795 301.932 40.0795C302.886 40.0795 303.701 39.9205 304.375 39.6023C305.057 39.2765 305.614 38.8826 306.045 38.4205C306.477 37.9583 306.803 37.5114 307.023 37.0795L308.284 37.5909C308.019 38.1742 307.606 38.7576 307.045 39.3409C306.492 39.9167 305.788 40.3977 304.932 40.7841C304.083 41.1705 303.083 41.3636 301.932 41.3636ZM315.011 29.6818V41H313.625V23.5455H314.977V26.3068H315.114C315.523 25.4053 316.178 24.6818 317.08 24.1364C317.981 23.5909 319.053 23.3182 320.295 23.3182C321.47 23.3182 322.5 23.5682 323.386 24.0682C324.28 24.5682 324.977 25.2803 325.477 26.2045C325.985 27.1212 326.239 28.2159 326.239 29.4886V41H324.852V29.5455C324.852 28.0606 324.409 26.8674 323.523 25.9659C322.644 25.0568 321.481 24.6023 320.034 24.6023C319.064 24.6023 318.201 24.8144 317.443 25.2386C316.686 25.6629 316.091 26.2576 315.659 27.0227C315.227 27.7803 315.011 28.6667 315.011 29.6818Z" fill="black"/>
<path d="M121.716 88H118.023L128.705 58.9091H132.341L143.023 88H139.33L130.636 63.5114H130.409L121.716 88ZM123.08 76.6364H137.966V79.7614H123.08V76.6364ZM147.099 96.1818V66.1818H150.338V69.6477H150.736C150.982 69.2689 151.323 68.786 151.759 68.1989C152.204 67.6023 152.838 67.072 153.662 66.608C154.495 66.1345 155.622 65.8977 157.043 65.8977C158.88 65.8977 160.499 66.357 161.901 67.2756C163.302 68.1941 164.396 69.4962 165.182 71.1818C165.968 72.8674 166.361 74.8561 166.361 77.1477C166.361 79.4583 165.968 81.4612 165.182 83.1562C164.396 84.8419 163.307 86.1487 161.915 87.0767C160.523 87.9953 158.918 88.4545 157.099 88.4545C155.698 88.4545 154.576 88.2225 153.733 87.7585C152.89 87.285 152.241 86.75 151.787 86.1534C151.332 85.5473 150.982 85.0455 150.736 84.6477H150.452V96.1818H147.099ZM150.395 77.0909C150.395 78.7386 150.636 80.1922 151.119 81.4517C151.602 82.7017 152.308 83.6818 153.236 84.392C154.164 85.0928 155.3 85.4432 156.645 85.4432C158.046 85.4432 159.216 85.0739 160.153 84.3352C161.1 83.5871 161.811 82.5833 162.284 81.3239C162.767 80.0549 163.009 78.6439 163.009 77.0909C163.009 75.5568 162.772 74.1742 162.298 72.9432C161.834 71.7027 161.129 70.7225 160.182 70.0028C159.244 69.2737 158.065 68.9091 156.645 68.9091C155.281 68.9091 154.135 69.2547 153.207 69.946C152.279 70.6278 151.579 71.5843 151.105 72.8153C150.632 74.0369 150.395 75.4621 150.395 77.0909ZM171.474 96.1818V66.1818H174.713V69.6477H175.111C175.357 69.2689 175.698 68.786 176.134 68.1989C176.579 67.6023 177.213 67.072 178.037 66.608C178.87 66.1345 179.997 65.8977 181.418 65.8977C183.255 65.8977 184.874 66.357 186.276 67.2756C187.677 68.1941 188.771 69.4962 189.557 71.1818C190.343 72.8674 190.736 74.8561 190.736 77.1477C190.736 79.4583 190.343 81.4612 189.557 83.1562C188.771 84.8419 187.682 86.1487 186.29 87.0767C184.898 87.9953 183.293 88.4545 181.474 88.4545C180.073 88.4545 178.951 88.2225 178.108 87.7585C177.265 87.285 176.616 86.75 176.162 86.1534C175.707 85.5473 175.357 85.0455 175.111 84.6477H174.827V96.1818H171.474ZM174.77 77.0909C174.77 78.7386 175.011 80.1922 175.494 81.4517C175.977 82.7017 176.683 83.6818 177.611 84.392C178.539 85.0928 179.675 85.4432 181.02 85.4432C182.421 85.4432 183.591 85.0739 184.528 84.3352C185.475 83.5871 186.186 82.5833 186.659 81.3239C187.142 80.0549 187.384 78.6439 187.384 77.0909C187.384 75.5568 187.147 74.1742 186.673 72.9432C186.209 71.7027 185.504 70.7225 184.557 70.0028C183.619 69.2737 182.44 68.9091 181.02 68.9091C179.656 68.9091 178.51 69.2547 177.582 69.946C176.654 70.6278 175.954 71.5843 175.48 72.8153C175.007 74.0369 174.77 75.4621 174.77 77.0909ZM223.463 66.1818C223.293 64.7424 222.601 63.625 221.389 62.8295C220.177 62.0341 218.69 61.6364 216.929 61.6364C215.641 61.6364 214.514 61.8447 213.548 62.2614C212.592 62.678 211.844 63.2509 211.304 63.9801C210.774 64.7093 210.509 65.5379 210.509 66.4659C210.509 67.2424 210.693 67.91 211.062 68.4688C211.441 69.018 211.924 69.4773 212.511 69.8466C213.098 70.2064 213.714 70.5047 214.358 70.7415C215.002 70.9687 215.594 71.1534 216.134 71.2955L219.088 72.0909C219.846 72.2898 220.688 72.5644 221.616 72.9148C222.554 73.2652 223.449 73.7434 224.301 74.3494C225.163 74.946 225.873 75.7131 226.432 76.6506C226.991 77.5881 227.27 78.7386 227.27 80.1023C227.27 81.6742 226.858 83.0947 226.034 84.3636C225.22 85.6326 224.027 86.6411 222.455 87.3892C220.892 88.1373 218.993 88.5114 216.759 88.5114C214.675 88.5114 212.871 88.1752 211.347 87.5028C209.831 86.8305 208.638 85.893 207.767 84.6903C206.905 83.4877 206.418 82.0909 206.304 80.5H209.94C210.035 81.5985 210.404 82.5076 211.048 83.2273C211.702 83.9375 212.526 84.4678 213.52 84.8182C214.524 85.1591 215.603 85.3295 216.759 85.3295C218.103 85.3295 219.311 85.1117 220.381 84.6761C221.451 84.2311 222.298 83.6155 222.923 82.8295C223.548 82.0341 223.861 81.1061 223.861 80.0455C223.861 79.0795 223.591 78.2936 223.051 77.6875C222.511 77.0814 221.801 76.589 220.92 76.2102C220.04 75.8314 219.088 75.5 218.065 75.2159L214.486 74.1932C212.213 73.5398 210.414 72.607 209.088 71.3949C207.762 70.1828 207.099 68.5966 207.099 66.6364C207.099 65.0076 207.54 63.5871 208.42 62.375C209.311 61.1534 210.504 60.2064 212 59.5341C213.506 58.8523 215.187 58.5114 217.043 58.5114C218.918 58.5114 220.584 58.8475 222.043 59.5199C223.501 60.1828 224.656 61.0919 225.509 62.2472C226.37 63.4025 226.825 64.714 226.872 66.1818H223.463ZM242.096 66.1818V69.0227H230.789V66.1818H242.096ZM234.085 60.9545H237.437V81.75C237.437 82.697 237.574 83.4072 237.849 83.8807C238.133 84.3447 238.493 84.6572 238.928 84.8182C239.373 84.9697 239.842 85.0455 240.335 85.0455C240.704 85.0455 241.007 85.0265 241.244 84.9886C241.48 84.9413 241.67 84.9034 241.812 84.875L242.494 87.8864C242.266 87.9716 241.949 88.0568 241.542 88.142C241.135 88.2367 240.619 88.2841 239.994 88.2841C239.047 88.2841 238.119 88.0805 237.21 87.6733C236.31 87.2661 235.562 86.6458 234.965 85.8125C234.378 84.9792 234.085 83.928 234.085 82.6591V60.9545ZM255.768 88.4545C253.798 88.4545 252.07 87.9858 250.583 87.0483C249.106 86.1108 247.951 84.7992 247.117 83.1136C246.293 81.428 245.881 79.4583 245.881 77.2045C245.881 74.9318 246.293 72.9479 247.117 71.2528C247.951 69.5578 249.106 68.2415 250.583 67.304C252.07 66.3665 253.798 65.8977 255.768 65.8977C257.737 65.8977 259.461 66.3665 260.938 67.304C262.425 68.2415 263.58 69.5578 264.404 71.2528C265.237 72.9479 265.654 74.9318 265.654 77.2045C265.654 79.4583 265.237 81.428 264.404 83.1136C263.58 84.7992 262.425 86.1108 260.938 87.0483C259.461 87.9858 257.737 88.4545 255.768 88.4545ZM255.768 85.4432C257.264 85.4432 258.495 85.0597 259.461 84.2926C260.427 83.5256 261.142 82.517 261.606 81.267C262.07 80.017 262.302 78.6629 262.302 77.2045C262.302 75.7462 262.07 74.3873 261.606 73.1278C261.142 71.8684 260.427 70.8504 259.461 70.0739C258.495 69.2973 257.264 68.9091 255.768 68.9091C254.272 68.9091 253.04 69.2973 252.075 70.0739C251.109 70.8504 250.394 71.8684 249.93 73.1278C249.466 74.3873 249.234 75.7462 249.234 77.2045C249.234 78.6629 249.466 80.017 249.93 81.267C250.394 82.517 251.109 83.5256 252.075 84.2926C253.04 85.0597 254.272 85.4432 255.768 85.4432ZM270.771 88V66.1818H274.01V69.4773H274.237C274.635 68.3977 275.355 67.5218 276.396 66.8494C277.438 66.1771 278.612 65.8409 279.919 65.8409C280.165 65.8409 280.473 65.8456 280.842 65.8551C281.212 65.8646 281.491 65.8788 281.68 65.8977V69.3068C281.567 69.2784 281.306 69.2358 280.899 69.179C280.501 69.1127 280.08 69.0795 279.635 69.0795C278.574 69.0795 277.627 69.3021 276.794 69.7472C275.97 70.1828 275.317 70.7888 274.834 71.5653C274.36 72.3324 274.124 73.2083 274.124 74.1932V88H270.771ZM294.138 88.4545C292.036 88.4545 290.222 87.9905 288.697 87.0625C287.182 86.125 286.013 84.8182 285.189 83.142C284.375 81.4564 283.967 79.4962 283.967 77.2614C283.967 75.0265 284.375 73.0568 285.189 71.3523C286.013 69.6383 287.159 68.303 288.626 67.3466C290.104 66.3807 291.827 65.8977 293.797 65.8977C294.933 65.8977 296.055 66.0871 297.163 66.4659C298.271 66.8447 299.28 67.4602 300.189 68.3125C301.098 69.1553 301.822 70.2727 302.362 71.6648C302.902 73.0568 303.172 74.7708 303.172 76.8068V78.2273H286.354V75.3295H299.763C299.763 74.0985 299.517 73 299.024 72.0341C298.541 71.0682 297.85 70.3059 296.95 69.7472C296.06 69.1884 295.009 68.9091 293.797 68.9091C292.462 68.9091 291.306 69.2405 290.331 69.9034C289.365 70.5568 288.622 71.4091 288.101 72.4602C287.58 73.5114 287.32 74.6383 287.32 75.8409V77.7727C287.32 79.4205 287.604 80.8172 288.172 81.9631C288.75 83.0994 289.55 83.9659 290.572 84.5625C291.595 85.1496 292.784 85.4432 294.138 85.4432C295.018 85.4432 295.814 85.3201 296.524 85.0739C297.244 84.8182 297.864 84.4394 298.385 83.9375C298.906 83.4261 299.308 82.7917 299.592 82.0341L302.831 82.9432C302.49 84.0417 301.917 85.0076 301.112 85.8409C300.307 86.6648 299.313 87.3087 298.129 87.7727C296.946 88.2273 295.615 88.4545 294.138 88.4545Z" fill="black"/>
<defs>
<clipPath id="clip0_61_4">
<rect width="57" height="68" fill="white" transform="translate(46 15)"/>
</clipPath>
</defs>
</svg>
