<svg width="80" height="80" viewBox="0 0 80 80" fill="none" xmlns="http://www.w3.org/2000/svg">
<path d="M68.75 8.75H11.25C9.86719 8.75 8.75 9.86719 8.75 11.25V68.75C8.75 70.1328 9.86719 71.25 11.25 71.25H68.75C70.1328 71.25 71.25 70.1328 71.25 68.75V11.25C71.25 9.86719 70.1328 8.75 68.75 8.75ZM66.25 66.25H51.8672V47.0469H59.9922L61.2109 37.6172H51.8672V31.5938C51.8672 28.8594 52.625 27 56.5391 27H61.5312V18.5625C60.6641 18.4453 57.7031 18.1875 54.25 18.1875C47.0469 18.1875 42.1172 22.5859 42.1172 30.6562V37.6094H33.9766V47.0391H42.125V66.25H13.75V13.75H66.25V66.25Z" fill="#303030"/>
</svg>
