<svg width="80" height="80" viewBox="0 0 80 80" fill="none" xmlns="http://www.w3.org/2000/svg">
<path d="M40 22.8693C36.6148 22.8693 33.3058 23.8722 30.4911 25.7511C27.6765 27.63 25.4828 30.3005 24.1874 33.425C22.8919 36.5495 22.553 39.9876 23.2134 43.3046C23.8738 46.6216 25.5039 49.6684 27.8975 52.0598C30.2912 54.4511 33.3408 56.0797 36.6609 56.7395C39.981 57.3993 43.4223 57.0606 46.5497 55.7664C49.6772 54.4722 52.3502 52.2806 54.2309 49.4686C56.1116 46.6566 57.1154 43.3506 57.1154 39.9687C57.1209 37.7216 56.6819 35.4956 55.8238 33.4185C54.9656 31.3415 53.7051 29.4543 52.1147 27.8653C50.5243 26.2764 48.6353 25.0171 46.5563 24.1597C44.4772 23.3023 42.2491 22.8638 40 22.8693ZM40 51.1041C37.7955 51.1041 35.6406 50.451 33.8076 49.2275C31.9747 48.0039 30.5461 46.2648 29.7025 44.23C28.8589 42.1953 28.6382 39.9563 29.0682 37.7963C29.4983 35.6362 30.5598 33.6521 32.1186 32.0947C33.6774 30.5374 35.6634 29.4769 37.8255 29.0472C39.9876 28.6175 42.2287 28.8381 44.2653 29.6809C46.302 30.5237 48.0427 31.9509 49.2674 33.7822C50.4922 35.6134 51.1459 37.7663 51.1459 39.9687C51.1459 42.922 49.9716 45.7543 47.8813 47.8426C45.791 49.9309 42.956 51.1041 40 51.1041ZM61.8326 22.1603C61.8326 22.9852 61.5877 23.7915 61.129 24.4774C60.6703 25.1632 60.0184 25.6978 59.2556 26.0134C58.4928 26.3291 57.6534 26.4117 56.8437 26.2508C56.0339 26.0898 55.2901 25.6926 54.7062 25.1094C54.1224 24.5261 53.7249 23.783 53.5638 22.974C53.4027 22.1649 53.4854 21.3264 53.8013 20.5643C54.1173 19.8022 54.6524 19.1509 55.3388 18.6926C56.0253 18.2343 56.8324 17.9897 57.6581 17.9897C58.7652 17.9897 59.827 18.4291 60.6099 19.2113C61.3927 19.9934 61.8326 21.0542 61.8326 22.1603ZM73.1454 26.3309C73.2714 21.1453 71.335 16.1213 67.7603 12.3595C65.9059 10.5686 63.7163 9.16052 61.3167 8.21589C58.9171 7.27126 56.3546 6.80857 53.7758 6.8543C48.3489 6.60407 31.651 6.60407 26.2241 6.8543C21.0361 6.74207 16.0124 8.67476 12.2396 12.2343C8.66493 15.9962 6.72848 21.0202 6.85448 26.2058C6.60401 31.6275 6.60401 48.3098 6.85448 53.7316C6.72848 58.9171 8.66493 63.9412 12.2396 67.703C16.0124 71.2626 21.0361 73.1953 26.2241 73.0831C31.7345 73.4167 48.2654 73.4167 53.7758 73.0831C58.9662 73.2089 63.9949 71.2743 67.7603 67.703C71.335 63.9412 73.2714 58.9171 73.1454 53.7316C73.3959 48.3098 73.3959 31.6275 73.1454 26.2058V26.3309ZM66.0488 59.6955C65.482 61.1299 64.6264 62.4328 63.5349 63.5232C62.4434 64.6137 61.1393 65.4685 59.7036 66.0348C53.2231 67.3437 46.598 67.7925 40 67.3694C33.4158 67.7888 26.805 67.3401 20.3381 66.0348C18.9023 65.4685 17.5983 64.6137 16.5068 63.5232C15.4153 62.4328 14.5596 61.1299 13.9929 59.6955C12.2396 55.2747 12.6153 44.8483 12.6153 40.0104C12.6153 35.1725 12.2396 24.7044 13.9929 20.3253C14.5437 18.8767 15.3932 17.56 16.4863 16.4607C17.5795 15.3614 18.8918 14.504 20.3381 13.9443C26.805 12.639 33.4158 12.1903 40 12.6097C46.598 12.1866 53.2231 12.6353 59.7036 13.9443C61.1393 14.5105 62.4434 15.3654 63.5349 16.4559C64.6264 17.5463 65.482 18.8491 66.0488 20.2836C67.8021 24.7044 67.3846 35.1308 67.3846 39.9687C67.3846 44.8065 67.8021 55.2747 66.0488 59.6538V59.6955Z" fill="#303030"/>
</svg>
