<svg width="80" height="80" viewBox="0 0 80 80" fill="none" xmlns="http://www.w3.org/2000/svg">
<path d="M67.975 6.66663H12.025C9.06663 6.66663 6.66663 9.06663 6.66663 12.025V67.975C6.66663 70.9333 9.06663 73.3333 12.025 73.3333H67.975C70.9333 73.3333 73.3333 70.9333 73.3333 67.975V12.025C73.3333 9.06663 70.9333 6.66663 67.975 6.66663ZM67.975 68C30.6583 67.9916 12 67.9833 12 67.975C12.0083 30.6583 12.0166 12 12.025 12C49.3416 12.0083 68 12.0166 68 12.025C67.9916 49.3416 67.9833 68 67.975 68ZM16.55 31.6583H26.4416V63.475H16.55V31.6583ZM21.5 27.3083C24.6583 27.3083 27.2333 24.7416 27.2333 21.575C27.2333 20.822 27.085 20.0765 26.7969 19.3809C26.5087 18.6853 26.0864 18.0533 25.554 17.5209C25.0216 16.9885 24.3896 16.5662 23.694 16.278C22.9984 15.9899 22.2529 15.8416 21.5 15.8416C20.747 15.8416 20.0015 15.9899 19.3059 16.278C18.6103 16.5662 17.9783 16.9885 17.4459 17.5209C16.9135 18.0533 16.4912 18.6853 16.203 19.3809C15.9149 20.0765 15.7666 20.822 15.7666 21.575C15.7583 24.7416 18.325 27.3083 21.5 27.3083ZM42.525 47.7333C42.525 43.5833 43.3166 39.5666 48.4583 39.5666C53.525 39.5666 53.6 44.3083 53.6 48V63.475H63.4833V46.025C63.4833 37.4583 61.6333 30.8666 51.625 30.8666C46.8166 30.8666 43.5916 33.5083 42.2666 36.0083H42.1333V31.6583H32.6416V63.475H42.525V47.7333Z" fill="#303030"/>
</svg>
