<svg width="1044" height="88" viewBox="0 0 1044 88" fill="none" xmlns="http://www.w3.org/2000/svg">
<rect x="0.5" y="0.5" width="1043" height="87" rx="19.5" fill="white"/>
<rect x="0.5" y="0.5" width="1043" height="87" rx="19.5" stroke="black"/>
<path d="M76.0909 42H74.6364C74.4848 41.2121 74.2008 40.4508 73.7841 39.7159C73.3674 38.9735 72.8295 38.3068 72.1705 37.7159C71.5189 37.1174 70.7614 36.6439 69.8977 36.2955C69.0341 35.947 68.0795 35.7727 67.0341 35.7727C65.5038 35.7727 64.0947 36.1818 62.8068 37C61.5265 37.8106 60.5 39.0038 59.7273 40.5795C58.9621 42.1553 58.5795 44.0833 58.5795 46.3636C58.5795 48.6591 58.9621 50.5947 59.7273 52.1705C60.5 53.7462 61.5265 54.9394 62.8068 55.75C64.0947 56.553 65.5038 56.9545 67.0341 56.9545C68.0795 56.9545 69.0341 56.7841 69.8977 56.4432C70.7614 56.0947 71.5189 55.625 72.1705 55.0341C72.8295 54.4356 73.3674 53.7652 73.7841 53.0227C74.2008 52.2803 74.4848 51.5152 74.6364 50.7273H76.0909C75.9242 51.6667 75.6023 52.5871 75.125 53.4886C74.6553 54.3902 74.0341 55.2083 73.2614 55.9432C72.4962 56.6705 71.5909 57.25 70.5455 57.6818C69.5076 58.1061 68.3371 58.3182 67.0341 58.3182C65.0947 58.3182 63.3864 57.8258 61.9091 56.8409C60.4318 55.8485 59.2727 54.4545 58.4318 52.6591C57.5985 50.8636 57.1818 48.7652 57.1818 46.3636C57.1818 43.9621 57.5985 41.8636 58.4318 40.0682C59.2727 38.2727 60.4318 36.8826 61.9091 35.8977C63.3864 34.9053 65.0947 34.4091 67.0341 34.4091C68.3371 34.4091 69.5076 34.625 70.5455 35.0568C71.5909 35.4811 72.4962 36.0568 73.2614 36.7841C74.0341 37.5038 74.6553 38.3144 75.125 39.2159C75.6023 40.1174 75.9242 41.0455 76.0909 42ZM87.5511 58.3636C86.1117 58.3636 84.8314 57.9773 83.7102 57.2045C82.589 56.4242 81.7064 55.3523 81.0625 53.9886C80.4186 52.625 80.0966 51.072 80.0966 49.3295C80.0966 47.5795 80.4186 46.0265 81.0625 44.6705C81.7064 43.3068 82.589 42.2348 83.7102 41.4545C84.8314 40.6742 86.1117 40.2841 87.5511 40.2841C88.9905 40.2841 90.2708 40.6742 91.392 41.4545C92.5133 42.2348 93.3958 43.3068 94.0398 44.6705C94.6837 46.0341 95.0057 47.5871 95.0057 49.3295C95.0057 51.072 94.6837 52.625 94.0398 53.9886C93.3958 55.3523 92.5133 56.4242 91.392 57.2045C90.2708 57.9773 88.9905 58.3636 87.5511 58.3636ZM87.5511 57.0795C88.7708 57.0795 89.8352 56.7348 90.7443 56.0455C91.661 55.3561 92.3693 54.4242 92.8693 53.25C93.3769 52.0758 93.6307 50.7689 93.6307 49.3295C93.6307 47.8902 93.3769 46.5871 92.8693 45.4205C92.3617 44.2462 91.6534 43.3144 90.7443 42.625C89.8352 41.928 88.7708 41.5795 87.5511 41.5795C86.3314 41.5795 85.267 41.928 84.358 42.625C83.4489 43.3144 82.7405 44.2462 82.233 45.4205C81.7254 46.5871 81.4716 47.8902 81.4716 49.3295C81.4716 50.7689 81.7216 52.0758 82.2216 53.25C82.7292 54.4242 83.4375 55.3561 84.3466 56.0455C85.2633 56.7348 86.3314 57.0795 87.5511 57.0795ZM99.7812 58V40.5455H101.134V43.2727H101.259C101.637 42.3788 102.277 41.6629 103.179 41.125C104.08 40.5795 105.107 40.3068 106.259 40.3068C106.38 40.3068 106.501 40.3068 106.622 40.3068C106.743 40.3068 106.857 40.3106 106.963 40.3182V41.7159C106.872 41.7083 106.762 41.697 106.634 41.6818C106.512 41.6591 106.361 41.6477 106.179 41.6477C105.209 41.6477 104.346 41.8561 103.588 42.2727C102.838 42.6894 102.247 43.2652 101.815 44C101.384 44.7273 101.168 45.5606 101.168 46.5V58H99.7812ZM110.688 58V40.5455H112.04V43.2727H112.165C112.544 42.3788 113.184 41.6629 114.085 41.125C114.987 40.5795 116.013 40.3068 117.165 40.3068C117.286 40.3068 117.407 40.3068 117.528 40.3068C117.65 40.3068 117.763 40.3106 117.869 40.3182V41.7159C117.778 41.7083 117.669 41.697 117.54 41.6818C117.419 41.6591 117.267 41.6477 117.085 41.6477C116.116 41.6477 115.252 41.8561 114.494 42.2727C113.744 42.6894 113.153 43.2652 112.722 44C112.29 44.7273 112.074 45.5606 112.074 46.5V58H110.688ZM127.869 58.3636C126.294 58.3636 124.922 57.9735 123.756 57.1932C122.589 56.4129 121.688 55.3447 121.051 53.9886C120.415 52.6326 120.097 51.0871 120.097 49.3523C120.097 47.6098 120.415 46.0568 121.051 44.6932C121.695 43.3295 122.578 42.2538 123.699 41.4659C124.82 40.678 126.1 40.2841 127.54 40.2841C128.517 40.2841 129.441 40.4811 130.312 40.875C131.191 41.2614 131.964 41.822 132.631 42.5568C133.305 43.2917 133.831 44.178 134.21 45.2159C134.597 46.2538 134.79 47.4205 134.79 48.7159V49.5795H120.972V48.3182H133.403C133.403 47.053 133.146 45.9129 132.631 44.8977C132.116 43.8826 131.415 43.0758 130.528 42.4773C129.642 41.8788 128.646 41.5795 127.54 41.5795C126.381 41.5795 125.347 41.9053 124.438 42.5568C123.536 43.2008 122.82 44.072 122.29 45.1705C121.767 46.2689 121.494 47.4962 121.472 48.8523V49.4205C121.472 50.875 121.725 52.1818 122.233 53.3409C122.748 54.4924 123.483 55.4053 124.438 56.0795C125.392 56.7462 126.536 57.0795 127.869 57.0795C128.824 57.0795 129.638 56.9205 130.312 56.6023C130.994 56.2765 131.551 55.8826 131.983 55.4205C132.415 54.9583 132.741 54.5114 132.96 54.0795L134.222 54.5909C133.956 55.1742 133.544 55.7576 132.983 56.3409C132.43 56.9167 131.725 57.3977 130.869 57.7841C130.021 58.1705 129.021 58.3636 127.869 58.3636ZM146.051 58.3636C144.612 58.3636 143.331 57.9773 142.21 57.2045C141.089 56.4242 140.206 55.3523 139.562 53.9886C138.919 52.625 138.597 51.072 138.597 49.3295C138.597 47.5795 138.919 46.0265 139.562 44.6705C140.206 43.3068 141.089 42.2348 142.21 41.4545C143.331 40.6742 144.612 40.2841 146.051 40.2841C147.491 40.2841 148.771 40.6742 149.892 41.4545C151.013 42.2348 151.896 43.3068 152.54 44.6705C153.184 46.0341 153.506 47.5871 153.506 49.3295C153.506 51.072 153.184 52.625 152.54 53.9886C151.896 55.3523 151.013 56.4242 149.892 57.2045C148.771 57.9773 147.491 58.3636 146.051 58.3636ZM146.051 57.0795C147.271 57.0795 148.335 56.7348 149.244 56.0455C150.161 55.3561 150.869 54.4242 151.369 53.25C151.877 52.0758 152.131 50.7689 152.131 49.3295C152.131 47.8902 151.877 46.5871 151.369 45.4205C150.862 44.2462 150.153 43.3144 149.244 42.625C148.335 41.928 147.271 41.5795 146.051 41.5795C144.831 41.5795 143.767 41.928 142.858 42.625C141.949 43.3144 141.241 44.2462 140.733 45.4205C140.225 46.5871 139.972 47.8902 139.972 49.3295C139.972 50.7689 140.222 52.0758 140.722 53.25C141.229 54.4242 141.938 55.3561 142.847 56.0455C143.763 56.7348 144.831 57.0795 146.051 57.0795ZM174.088 58.3636C172.512 58.3636 171.141 57.9735 169.974 57.1932C168.808 56.4129 167.906 55.3447 167.27 53.9886C166.634 52.6326 166.315 51.0871 166.315 49.3523C166.315 47.6098 166.634 46.0568 167.27 44.6932C167.914 43.3295 168.796 42.2538 169.918 41.4659C171.039 40.678 172.319 40.2841 173.759 40.2841C174.736 40.2841 175.66 40.4811 176.531 40.875C177.41 41.2614 178.183 41.822 178.849 42.5568C179.524 43.2917 180.05 44.178 180.429 45.2159C180.815 46.2538 181.009 47.4205 181.009 48.7159V49.5795H167.19V48.3182H179.622C179.622 47.053 179.365 45.9129 178.849 44.8977C178.334 43.8826 177.634 43.0758 176.747 42.4773C175.861 41.8788 174.865 41.5795 173.759 41.5795C172.599 41.5795 171.565 41.9053 170.656 42.5568C169.755 43.2008 169.039 44.072 168.509 45.1705C167.986 46.2689 167.713 47.4962 167.69 48.8523V49.4205C167.69 50.875 167.944 52.1818 168.452 53.3409C168.967 54.4924 169.702 55.4053 170.656 56.0795C171.611 56.7462 172.755 57.0795 174.088 57.0795C175.043 57.0795 175.857 56.9205 176.531 56.6023C177.213 56.2765 177.77 55.8826 178.202 55.4205C178.634 54.9583 178.959 54.5114 179.179 54.0795L180.44 54.5909C180.175 55.1742 179.762 55.7576 179.202 56.3409C178.649 56.9167 177.944 57.3977 177.088 57.7841C176.24 58.1705 175.24 58.3636 174.088 58.3636ZM187.168 34.7273V58H185.781V34.7273H187.168ZM199.713 58.3636C198.137 58.3636 196.766 57.9735 195.599 57.1932C194.433 56.4129 193.531 55.3447 192.895 53.9886C192.259 52.6326 191.94 51.0871 191.94 49.3523C191.94 47.6098 192.259 46.0568 192.895 44.6932C193.539 43.3295 194.421 42.2538 195.543 41.4659C196.664 40.678 197.944 40.2841 199.384 40.2841C200.361 40.2841 201.285 40.4811 202.156 40.875C203.035 41.2614 203.808 41.822 204.474 42.5568C205.149 43.2917 205.675 44.178 206.054 45.2159C206.44 46.2538 206.634 47.4205 206.634 48.7159V49.5795H192.815V48.3182H205.247C205.247 47.053 204.99 45.9129 204.474 44.8977C203.959 43.8826 203.259 43.0758 202.372 42.4773C201.486 41.8788 200.49 41.5795 199.384 41.5795C198.224 41.5795 197.19 41.9053 196.281 42.5568C195.38 43.2008 194.664 44.072 194.134 45.1705C193.611 46.2689 193.338 47.4962 193.315 48.8523V49.4205C193.315 50.875 193.569 52.1818 194.077 53.3409C194.592 54.4924 195.327 55.4053 196.281 56.0795C197.236 56.7462 198.38 57.0795 199.713 57.0795C200.668 57.0795 201.482 56.9205 202.156 56.6023C202.838 56.2765 203.395 55.8826 203.827 55.4205C204.259 54.9583 204.584 54.5114 204.804 54.0795L206.065 54.5909C205.8 55.1742 205.387 55.7576 204.827 56.3409C204.274 56.9167 203.569 57.3977 202.713 57.7841C201.865 58.1705 200.865 58.3636 199.713 58.3636ZM217.952 58.3636C216.467 58.3636 215.16 57.9735 214.031 57.1932C212.902 56.4053 212.02 55.3295 211.384 53.9659C210.755 52.6023 210.44 51.0568 210.44 49.3295C210.44 47.6023 210.759 46.0568 211.395 44.6932C212.031 43.3295 212.914 42.2538 214.043 41.4659C215.171 40.678 216.471 40.2841 217.94 40.2841C219.046 40.2841 220.054 40.5114 220.963 40.9659C221.88 41.4205 222.637 42.053 223.236 42.8636C223.842 43.6742 224.228 44.6136 224.395 45.6818H222.986C222.759 44.5 222.19 43.5227 221.281 42.75C220.38 41.9697 219.27 41.5795 217.952 41.5795C216.77 41.5795 215.717 41.9129 214.793 42.5795C213.868 43.2386 213.141 44.1515 212.611 45.3182C212.08 46.4773 211.815 47.8068 211.815 49.3068C211.815 50.7841 212.073 52.1098 212.588 53.2841C213.103 54.4508 213.823 55.375 214.747 56.0568C215.671 56.7386 216.74 57.0795 217.952 57.0795C218.808 57.0795 219.588 56.9091 220.293 56.5682C221.005 56.2273 221.599 55.7424 222.077 55.1136C222.554 54.4848 222.868 53.75 223.02 52.9091H224.429C224.262 53.9848 223.884 54.9318 223.293 55.75C222.702 56.5682 221.948 57.2083 221.031 57.6705C220.115 58.1326 219.088 58.3636 217.952 58.3636ZM235.327 40.5455V41.7841H227.702V40.5455H235.327ZM230.281 36.3636H231.656V53.875C231.656 54.5871 231.793 55.1705 232.065 55.625C232.346 56.072 232.709 56.4053 233.156 56.625C233.611 56.8371 234.096 56.9432 234.611 56.9432C234.861 56.9432 235.077 56.9242 235.259 56.8864C235.448 56.8485 235.626 56.7992 235.793 56.7386L236.134 58C235.921 58.0758 235.687 58.1402 235.429 58.1932C235.171 58.2538 234.868 58.2841 234.52 58.2841C233.793 58.2841 233.103 58.1212 232.452 57.7955C231.808 57.4697 231.285 56.9962 230.884 56.375C230.482 55.7538 230.281 55.0038 230.281 54.125V36.3636ZM240.469 58V40.5455H241.821V43.2727H241.946C242.325 42.3788 242.965 41.6629 243.866 41.125C244.768 40.5795 245.795 40.3068 246.946 40.3068C247.067 40.3068 247.188 40.3068 247.31 40.3068C247.431 40.3068 247.545 40.3106 247.651 40.3182V41.7159C247.56 41.7083 247.45 41.697 247.321 41.6818C247.2 41.6591 247.048 41.6477 246.866 41.6477C245.897 41.6477 245.033 41.8561 244.276 42.2727C243.526 42.6894 242.935 43.2652 242.503 44C242.071 44.7273 241.855 45.5606 241.855 46.5V58H240.469ZM257.332 58.3636C255.893 58.3636 254.613 57.9773 253.491 57.2045C252.37 56.4242 251.488 55.3523 250.844 53.9886C250.2 52.625 249.878 51.072 249.878 49.3295C249.878 47.5795 250.2 46.0265 250.844 44.6705C251.488 43.3068 252.37 42.2348 253.491 41.4545C254.613 40.6742 255.893 40.2841 257.332 40.2841C258.772 40.2841 260.052 40.6742 261.173 41.4545C262.295 42.2348 263.177 43.3068 263.821 44.6705C264.465 46.0341 264.787 47.5871 264.787 49.3295C264.787 51.072 264.465 52.625 263.821 53.9886C263.177 55.3523 262.295 56.4242 261.173 57.2045C260.052 57.9773 258.772 58.3636 257.332 58.3636ZM257.332 57.0795C258.552 57.0795 259.616 56.7348 260.526 56.0455C261.442 55.3561 262.151 54.4242 262.651 53.25C263.158 52.0758 263.412 50.7689 263.412 49.3295C263.412 47.8902 263.158 46.5871 262.651 45.4205C262.143 44.2462 261.435 43.3144 260.526 42.625C259.616 41.928 258.552 41.5795 257.332 41.5795C256.113 41.5795 255.048 41.928 254.139 42.625C253.23 43.3144 252.522 44.2462 252.014 45.4205C251.507 46.5871 251.253 47.8902 251.253 49.3295C251.253 50.7689 251.503 52.0758 252.003 53.25C252.51 54.4242 253.219 55.3561 254.128 56.0455C255.045 56.7348 256.113 57.0795 257.332 57.0795ZM270.949 46.6818V58H269.562V40.5455H270.915V43.3068H271.051C271.46 42.4053 272.116 41.6818 273.017 41.1364C273.919 40.5909 274.991 40.3182 276.233 40.3182C277.407 40.3182 278.438 40.5682 279.324 41.0682C280.218 41.5682 280.915 42.2803 281.415 43.2045C281.922 44.1212 282.176 45.2159 282.176 46.4886V58H280.79V46.5455C280.79 45.0606 280.347 43.8674 279.46 42.9659C278.581 42.0568 277.419 41.6023 275.972 41.6023C275.002 41.6023 274.138 41.8144 273.381 42.2386C272.623 42.6629 272.028 43.2576 271.597 44.0227C271.165 44.7803 270.949 45.6667 270.949 46.6818ZM288.006 58V40.5455H289.381V58H288.006ZM288.699 37.4545C288.396 37.4545 288.131 37.3485 287.903 37.1364C287.684 36.9242 287.574 36.6667 287.574 36.3636C287.574 36.0606 287.684 35.803 287.903 35.5909C288.123 35.3788 288.388 35.2727 288.699 35.2727C289.002 35.2727 289.263 35.3788 289.483 35.5909C289.71 35.803 289.824 36.0606 289.824 36.3636C289.824 36.6667 289.714 36.9242 289.494 37.1364C289.275 37.3485 289.009 37.4545 288.699 37.4545ZM301.733 58.3636C300.248 58.3636 298.941 57.9735 297.812 57.1932C296.684 56.4053 295.801 55.3295 295.165 53.9659C294.536 52.6023 294.222 51.0568 294.222 49.3295C294.222 47.6023 294.54 46.0568 295.176 44.6932C295.813 43.3295 296.695 42.2538 297.824 41.4659C298.953 40.678 300.252 40.2841 301.722 40.2841C302.828 40.2841 303.835 40.5114 304.744 40.9659C305.661 41.4205 306.419 42.053 307.017 42.8636C307.623 43.6742 308.009 44.6136 308.176 45.6818H306.767C306.54 44.5 305.972 43.5227 305.062 42.75C304.161 41.9697 303.051 41.5795 301.733 41.5795C300.551 41.5795 299.498 41.9129 298.574 42.5795C297.65 43.2386 296.922 44.1515 296.392 45.3182C295.862 46.4773 295.597 47.8068 295.597 49.3068C295.597 50.7841 295.854 52.1098 296.369 53.2841C296.884 54.4508 297.604 55.375 298.528 56.0568C299.453 56.7386 300.521 57.0795 301.733 57.0795C302.589 57.0795 303.369 56.9091 304.074 56.5682C304.786 56.2273 305.381 55.7424 305.858 55.1136C306.335 54.4848 306.65 53.75 306.801 52.9091H308.21C308.044 53.9848 307.665 54.9318 307.074 55.75C306.483 56.5682 305.729 57.2083 304.812 57.6705C303.896 58.1326 302.869 58.3636 301.733 58.3636ZM319.426 58.3636C317.987 58.3636 316.706 57.9773 315.585 57.2045C314.464 56.4242 313.581 55.3523 312.938 53.9886C312.294 52.625 311.972 51.072 311.972 49.3295C311.972 47.5795 312.294 46.0265 312.938 44.6705C313.581 43.3068 314.464 42.2348 315.585 41.4545C316.706 40.6742 317.987 40.2841 319.426 40.2841C320.866 40.2841 322.146 40.6742 323.267 41.4545C324.388 42.2348 325.271 43.3068 325.915 44.6705C326.559 46.0341 326.881 47.5871 326.881 49.3295C326.881 51.072 326.559 52.625 325.915 53.9886C325.271 55.3523 324.388 56.4242 323.267 57.2045C322.146 57.9773 320.866 58.3636 319.426 58.3636ZM319.426 57.0795C320.646 57.0795 321.71 56.7348 322.619 56.0455C323.536 55.3561 324.244 54.4242 324.744 53.25C325.252 52.0758 325.506 50.7689 325.506 49.3295C325.506 47.8902 325.252 46.5871 324.744 45.4205C324.237 44.2462 323.528 43.3144 322.619 42.625C321.71 41.928 320.646 41.5795 319.426 41.5795C318.206 41.5795 317.142 41.928 316.233 42.625C315.324 43.3144 314.616 44.2462 314.108 45.4205C313.6 46.5871 313.347 47.8902 313.347 49.3295C313.347 50.7689 313.597 52.0758 314.097 53.25C314.604 54.4242 315.312 55.3561 316.222 56.0455C317.138 56.7348 318.206 57.0795 319.426 57.0795Z" fill="black"/>
<rect x="786.5" y="0.5" width="256" height="87" rx="19.5" fill="#646F33"/>
<rect x="786.5" y="0.5" width="256" height="87" rx="19.5" stroke="black"/>
<path d="M858.212 58V28.9091H876.45V32.6875H862.601V41.5511H875.499V45.3153H862.601V54.2216H876.621V58H858.212ZM886.219 45.0455V58H881.972V36.1818H886.049V39.733H886.319C886.821 38.5777 887.607 37.6496 888.677 36.9489C889.756 36.2481 891.115 35.8977 892.754 35.8977C894.24 35.8977 895.542 36.2102 896.66 36.8352C897.777 37.4508 898.644 38.3693 899.259 39.5909C899.875 40.8125 900.183 42.3229 900.183 44.1222V58H895.935V44.6335C895.935 43.0521 895.523 41.8163 894.7 40.9261C893.876 40.0265 892.744 39.5767 891.305 39.5767C890.32 39.5767 889.444 39.7898 888.677 40.2159C887.919 40.642 887.318 41.267 886.873 42.0909C886.437 42.9053 886.219 43.8902 886.219 45.0455ZM923.762 36.1818L915.85 58H911.305L903.379 36.1818H907.938L913.464 52.9716H913.691L919.202 36.1818H923.762ZM927.754 58V36.1818H932.001V58H927.754ZM929.898 32.8153C929.16 32.8153 928.525 32.5691 927.995 32.0767C927.474 31.5748 927.214 30.9782 927.214 30.2869C927.214 29.5862 927.474 28.9896 927.995 28.4972C928.525 27.9953 929.16 27.7443 929.898 27.7443C930.637 27.7443 931.267 27.9953 931.788 28.4972C932.318 28.9896 932.583 29.5862 932.583 30.2869C932.583 30.9782 932.318 31.5748 931.788 32.0767C931.267 32.5691 930.637 32.8153 929.898 32.8153ZM944.064 58.483C942.681 58.483 941.431 58.2273 940.314 57.7159C939.196 57.1951 938.311 56.4422 937.658 55.4574C937.014 54.4725 936.692 53.2652 936.692 51.8352C936.692 50.6042 936.929 49.5909 937.402 48.7955C937.875 48 938.515 47.3703 939.32 46.9062C940.125 46.4422 941.024 46.0919 942.018 45.8551C943.013 45.6184 944.026 45.4384 945.058 45.3153C946.365 45.1638 947.426 45.0407 948.24 44.946C949.054 44.8419 949.646 44.6761 950.016 44.4489C950.385 44.2216 950.57 43.8523 950.57 43.3409V43.2415C950.57 42.0009 950.219 41.0398 949.518 40.358C948.827 39.6761 947.795 39.3352 946.422 39.3352C944.992 39.3352 943.865 39.6525 943.041 40.2869C942.227 40.9119 941.663 41.608 941.351 42.375L937.359 41.4659C937.833 40.1402 938.524 39.0701 939.433 38.2557C940.352 37.4318 941.408 36.8352 942.601 36.4659C943.794 36.0871 945.049 35.8977 946.365 35.8977C947.236 35.8977 948.16 36.0019 949.135 36.2102C950.12 36.4091 951.038 36.7784 951.891 37.3182C952.752 37.858 953.458 38.6297 954.007 39.6335C954.556 40.6278 954.831 41.9205 954.831 43.5114V58H950.683V55.017H950.513C950.238 55.5663 949.826 56.1061 949.277 56.6364C948.728 57.1667 948.022 57.607 947.161 57.9574C946.299 58.3078 945.267 58.483 944.064 58.483ZM944.987 55.0739C946.161 55.0739 947.165 54.8419 947.999 54.3778C948.841 53.9138 949.481 53.3078 949.916 52.5597C950.361 51.8021 950.584 50.9924 950.584 50.1307V47.3182C950.432 47.4697 950.139 47.6117 949.703 47.7443C949.277 47.8674 948.789 47.9763 948.24 48.071C947.691 48.1562 947.156 48.2367 946.635 48.3125C946.114 48.3788 945.679 48.4356 945.328 48.483C944.504 48.5871 943.751 48.7623 943.07 49.0085C942.397 49.2547 941.857 49.6098 941.45 50.0739C941.053 50.5284 940.854 51.1345 940.854 51.892C940.854 52.9432 941.242 53.7386 942.018 54.2784C942.795 54.8087 943.785 55.0739 944.987 55.0739ZM960.488 58V36.1818H964.593V39.6477H964.82C965.218 38.4735 965.919 37.5502 966.923 36.8778C967.936 36.196 969.082 35.8551 970.36 35.8551C970.625 35.8551 970.938 35.8646 971.298 35.8835C971.667 35.9025 971.956 35.9261 972.164 35.9545V40.017C971.994 39.9697 971.691 39.9176 971.255 39.8608C970.819 39.7945 970.384 39.7614 969.948 39.7614C968.944 39.7614 968.049 39.9744 967.263 40.4006C966.487 40.8172 965.871 41.3996 965.417 42.1477C964.962 42.8864 964.735 43.7292 964.735 44.6761V58H960.488Z" fill="white"/>
</svg>
