<svg width="76" height="76" viewBox="0 0 76 76" fill="none" xmlns="http://www.w3.org/2000/svg">
<g clip-path="url(#clip0_62_47)">
<path fill-rule="evenodd" clip-rule="evenodd" d="M30.8234 7.61629C24.5489 9.10691 18.8887 12.5012 14.6185 17.3342C10.3482 22.1671 7.67682 28.2022 6.97029 34.6126H21.5514C22.5449 25.004 25.726 15.7754 30.8234 7.61629ZM45.1874 7.61629C50.3038 15.7867 53.4759 25.0227 54.4594 34.6126H69.0406C68.334 28.2022 65.6626 22.1671 61.3924 17.3342C57.1222 12.5012 51.462 9.10691 45.1874 7.61629ZM47.6303 34.6126C46.5636 25.4303 43.2586 16.6504 38.0054 9.044C32.7523 16.6504 29.4472 25.4303 28.3806 34.6126H47.6303ZM28.3806 41.3983H47.6303C46.5636 50.5806 43.2586 59.3605 38.0054 66.9669C32.7523 59.3605 29.4472 50.5806 28.3806 41.3983ZM21.5514 41.3983H6.97029C7.67682 47.8087 10.3482 53.8438 14.6185 58.6767C18.8887 63.5096 24.5489 66.904 30.8234 68.3946C25.7071 60.2242 22.535 50.9881 21.5514 41.3983ZM45.1874 68.3946C50.3038 60.2242 53.4759 50.9881 54.4594 41.3983H69.0406C68.334 47.8087 65.6626 53.8438 61.3924 58.6767C57.1222 63.5096 51.462 66.904 45.1874 68.3946ZM38.0054 76.0109C42.9964 76.0109 47.9384 75.0278 52.5495 73.1179C57.1605 71.2079 61.3502 68.4085 64.8793 64.8793C68.4085 61.3502 71.2079 57.1605 73.1179 52.5495C75.0278 47.9385 76.0109 42.9964 76.0109 38.0054C76.0109 33.0145 75.0278 28.0724 73.1179 23.4614C71.2079 18.8504 68.4085 14.6607 64.8793 11.1315C61.3502 7.6024 57.1605 4.80294 52.5495 2.89299C47.9384 0.983039 42.9964 -7.43709e-08 38.0054 0C27.9258 1.50199e-07 18.2589 4.00413 11.1315 11.1315C4.00413 18.2589 0 27.9258 0 38.0054C0 48.0851 4.00413 57.7519 11.1315 64.8793C18.2589 72.0067 27.9258 76.0109 38.0054 76.0109Z" fill="#303030"/>
</g>
<defs>
<clipPath id="clip0_62_47">
<rect width="76" height="76" fill="white"/>
</clipPath>
</defs>
</svg>
